<?xml version="1.0" encoding="UTF-8"?>
<svg xmlns="http://www.w3.org/2000/svg" width="128" height="128" viewBox="0 0 128 128">
  <title>Phorminx Rounded P</title>
  <desc>Rounded Abyss field, heavy Limestone P, black counter and slit, and one restrained Bronze inner bar.</desc>
  <rect x="4.000" y="4.000" width="120.000" height="120.000" rx="22.667" fill="#0A0C0D"/>
  <path fill="#E8E5DD" d="M 27.500,18.75 L 76.800,18.75 L 78.577,18.815 L 80.319,19.007 L 82.023,19.322 L 83.685,19.756 L 85.301,20.304 L 86.868,20.963 L 88.382,21.727 L 89.839,22.594 L 91.236,23.558 L 92.570,24.616 L 93.835,25.763 L 95.030,26.994 L 96.150,28.307 L 97.192,29.696 L 98.151,31.158 L 99.025,32.688 L 99.810,34.282 L 100.502,35.935 L 101.097,37.644 L 101.593,39.405 L 101.984,41.212 L 102.268,43.062 L 102.441,44.951 L 102.500,46.875 L 102.441,48.797 L 102.268,50.684 L 101.984,52.533 L 101.593,54.34 L 101.097,56.099 L 100.502,57.808 L 99.810,59.461 L 99.025,61.055 L 98.151,62.585 L 97.192,64.047 L 96.150,65.436 L 95.030,66.749 L 93.835,67.982 L 92.570,69.129 L 91.236,70.188 L 89.839,71.152 L 88.382,72.02 L 86.868,72.785 L 85.301,73.444 L 83.685,73.993 L 82.023,74.427 L 80.319,74.743 L 78.577,74.935 L 76.800,75 L 63.875,75 L 63.875,105 L 27.500,105 Z"/>
  <path fill="#000000" d="M 59.750,32.5 L 83.125,32.5 L 84.165,32.559 L 85.178,32.732 L 86.160,33.013 L 87.107,33.399 L 88.015,33.884 L 88.881,34.462 L 89.699,35.129 L 90.467,35.88 L 91.181,36.709 L 91.836,37.612 L 92.428,38.584 L 92.954,39.619 L 93.410,40.712 L 93.792,41.858 L 94.096,43.053 L 94.318,44.29 L 94.454,45.566 L 94.500,46.875 L 94.454,48.185 L 94.318,49.462 L 94.096,50.701 L 93.792,51.896 L 93.410,53.043 L 92.954,54.136 L 92.428,55.171 L 91.836,56.142 L 91.181,57.044 L 90.467,57.873 L 89.699,58.624 L 88.881,59.29 L 88.015,59.868 L 87.107,60.352 L 86.160,60.737 L 85.178,61.019 L 84.165,61.191 L 83.125,61.25 L 59.750,61.25 Z M 51.250,32.5 L 55.625,32.5 L 55.625,61.25 L 51.250,61.25 Z"/>
  <path fill="#A87542" d="M 64.000,32.5 L 68.375,32.5 L 68.375,61.25 L 64.000,61.25 Z"/>
</svg>
